<?xml version="1.0" encoding="UTF-8"?>
<svg width="20.6212mm" height="17.7595mm" version="1.1" viewBox="0 0 20.6212 17.7595" xmlns="http://www.w3.org/2000/svg">
 <g transform="rotate(41.1 53.2498 -.458064)">
  <path d="m13.8539 35.3852v-0.868162l5.01777-2.11873v0.925006l-3.97907 1.63297 3.97907 1.64847v0.925005z" style="white-space:pre"/>
  <path d="m25.6623 33.3647h-5.7464v-0.909503h6.69724v5.91176h-0.950843v-0.454751h-5.7464v-0.909502h5.7464z" style="white-space:pre"/>
  <path d="m29.7405 37.5814h-0.950843v-0.909502h0.950843zm-0.950843-4.63019v-0.909502h0.950843v0.909502z" style="white-space:pre"/>
  <path d="m37.5808 31.2149q0.248047 0.289387-0.289387 0.289387-2.76985 2.10839-5.70506 2.5218l-0.248046-0.950843q3.05924-0.413411 5.62238-2.56314zm0.37207 2.43912q0.248046 0.372069-0.165364 0.289387-2.60448 1.98437-5.70506 2.48046l-0.248047-0.909503q3.4313-0.661456 5.5397-2.48046zm0.82682 2.3151q0.330728 0.372069-0.165364 0.289387-2.19107 2.27376-7.06931 2.85253l-0.248046-0.992185q4.87824-0.620115 6.77993-2.85253z" style="white-space:pre"/>
 </g>
</svg>
